<?xml version="1.0" standalone="no"?>
<!DOCTYPE svg PUBLIC "-//W3C//DTD SVG 20010904//EN"
 "http://www.w3.org/TR/2001/REC-SVG-20010904/DTD/svg10.dtd">
<svg version="1.0" xmlns="http://www.w3.org/2000/svg"
 width="512.000000pt" height="512.000000pt" viewBox="0 0 512.000000 512.000000"
 preserveAspectRatio="xMidYMid meet">

<g transform="translate(0.000000,512.000000) scale(0.100000,-0.100000)"
fill="#000000" stroke="none">
<path d="M3013 5099 c-89 -17 -135 -54 -260 -209 -37 -47 -52 -59 -68 -55
-172 48 -334 -54 -360 -227 -7 -44 -9 -46 -52 -59 -55 -15 -140 -90 -174 -153
-13 -26 -26 -46 -30 -46 -3 0 -34 11 -70 25 -270 107 -581 47 -799 -153 -114
-104 -150 -207 -116 -327 14 -45 29 -69 69 -110 116 -115 271 -115 397 1 89
83 164 104 247 69 68 -29 68 -29 -10 -126 -146 -180 -225 -364 -248 -576 -19
-163 -3 -284 63 -478 56 -167 58 -212 17 -301 -14 -28 -304 -364 -784 -909
-420 -475 -772 -879 -783 -897 -111 -182 -32 -433 164 -519 136 -60 316 -28
411 74 17 18 326 410 688 872 362 462 678 865 703 895 54 68 109 105 181 127
52 15 63 15 156 -1 146 -25 248 -30 350 -17 301 39 513 164 740 433 l40 48 45
-11 c149 -35 300 66 331 222 10 51 15 60 38 66 75 18 177 108 203 179 l11 32
53 -24 c174 -77 380 -82 568 -13 160 58 324 196 366 306 51 134 -9 287 -136
348 -22 11 -69 21 -107 23 -90 6 -143 -15 -220 -85 -68 -63 -109 -83 -169 -83
-41 0 -120 28 -131 47 -3 5 30 51 74 103 97 116 123 177 116 267 -9 113 -90
217 -190 244 -23 6 -72 9 -110 6 -91 -6 -140 -38 -245 -159 l-84 -97 -79 66
c-43 36 -79 69 -79 72 0 3 32 44 72 91 99 119 122 170 116 270 -5 82 -30 141
-80 187 -70 64 -186 89 -278 58 -56 -19 -114 -69 -216 -189 l-50 -60 -82 68
-81 69 22 27 c12 16 48 60 80 99 92 111 115 197 82 307 -37 125 -180 209 -312
183z m113 -184 c30 -20 47 -69 40 -108 -6 -30 -132 -197 -156 -205 -10 -4
-160 118 -160 131 0 11 149 185 163 191 26 10 94 5 113 -9z m-491 -241 c9 -4
375 -306 813 -671 608 -508 812 -673 862 -697 59 -28 74 -31 160 -31 116 0
172 23 268 109 53 47 69 56 101 56 75 0 126 -74 98 -142 -19 -45 -126 -142
-196 -177 -96 -49 -166 -65 -276 -65 -117 1 -227 31 -310 87 -27 18 -405 329
-840 691 -533 444 -796 669 -809 693 -16 30 -17 40 -7 74 18 59 82 93 136 73z
m1075 -249 c37 -19 50 -43 50 -92 0 -45 -32 -94 -146 -222 -10 -11 -26 -2 -93
54 -46 39 -78 72 -74 79 22 36 150 179 167 186 32 13 64 11 96 -5z m-1304 -57
c68 -53 1472 -1224 1507 -1256 52 -51 52 -95 -1 -152 -55 -57 -82 -55 -169 15
-315 253 -1491 1246 -1501 1267 -17 35 2 83 47 121 40 33 79 35 117 5z m-505
-138 c35 -12 87 -35 114 -50 83 -48 1647 -1356 1669 -1396 16 -31 17 -41 7
-75 -18 -59 -82 -93 -137 -72 -10 4 -381 309 -824 678 -581 484 -820 677 -860
695 -46 21 -70 25 -150 25 -82 0 -103 -4 -152 -27 -32 -15 -79 -47 -105 -71
-83 -77 -130 -87 -183 -39 -47 41 -51 94 -11 150 40 54 150 136 221 163 134
53 288 60 411 19z m2415 -308 c29 -23 44 -54 44 -91 0 -29 -14 -50 -128 -188
l-35 -41 -83 70 -84 70 77 89 c42 50 83 94 92 99 26 15 94 11 117 -8z m-2240
-283 c41 -34 74 -65 74 -69 0 -4 -18 -30 -40 -56 -63 -76 -83 -126 -83 -203 0
-110 50 -194 145 -246 44 -24 65 -29 123 -30 95 0 165 34 239 117 l54 61 81
-68 81 -68 -25 -31 c-80 -96 -105 -156 -104 -241 1 -93 55 -184 136 -232 43
-25 58 -28 133 -28 107 0 161 25 233 108 27 31 54 57 60 57 8 0 83 -60 146
-116 12 -11 10 -19 -14 -50 -145 -191 -338 -316 -560 -365 -85 -18 -263 -16
-370 5 -169 34 -323 -7 -436 -116 -20 -18 -355 -440 -746 -938 -551 -701 -719
-909 -746 -922 -79 -38 -147 -32 -216 20 -65 48 -90 160 -53 233 10 19 355
416 767 883 413 466 766 871 786 900 51 76 74 154 74 256 -1 75 -6 101 -48
220 -60 174 -75 281 -58 416 14 119 59 256 111 345 43 72 158 219 173 219 5 0
42 -28 83 -61z m289 -243 c33 -27 66 -55 74 -62 12 -11 7 -21 -28 -63 -50 -59
-94 -78 -145 -61 -73 24 -88 107 -33 180 17 24 36 49 42 56 11 15 14 14 90
-50z m605 -502 l79 -66 -37 -45 c-59 -71 -112 -89 -171 -59 -58 31 -67 102
-18 166 17 24 36 49 42 56 5 8 13 14 18 14 4 0 43 -30 87 -66z"/>
</g>
</svg>
