<svg width="637" height="106" viewBox="0 0 637 106" fill="none" xmlns="http://www.w3.org/2000/svg">
<g clip-path="url(#clip0_1_12)">
<rect width="637" height="106" fill="white"/>
<path d="M23.807 103.064C19.7283 103.064 16.2482 102.155 13.3665 100.337C10.5292 98.4755 8.35683 95.9485 6.8495 92.7565C5.3865 89.5645 4.655 85.9513 4.655 81.917V24.328C4.655 20.338 5.40867 16.747 6.916 13.555C8.46767 10.363 10.6843 7.83599 13.566 5.97399C16.4477 4.11199 19.8613 3.181 23.807 3.181C26.7773 3.181 29.4373 3.73516 31.787 4.84349C34.1367 5.95183 36.1317 7.48133 37.772 9.43199C39.4567 11.3383 40.7423 13.5772 41.629 16.1485C42.5157 18.6755 42.959 21.402 42.959 24.328V37.761H29.526V24.328C29.526 22.2887 29.1048 20.5818 28.2625 19.2075C27.4202 17.8332 26.0237 17.146 24.073 17.146C22.2997 17.146 21.014 17.8553 20.216 19.274C19.418 20.6927 19.019 22.3773 19.019 24.328V81.917C19.019 83.8677 19.4402 85.5523 20.2825 86.971C21.1692 88.3897 22.4327 89.099 24.073 89.099C26.068 89.099 27.4645 88.4118 28.2625 87.0375C29.1048 85.6632 29.526 83.9563 29.526 81.917V68.484H42.959V81.917C42.959 85.907 42.1832 89.498 40.6315 92.69C39.0798 95.882 36.8632 98.409 33.9815 100.271C31.1442 102.133 27.7527 103.064 23.807 103.064ZM52.6545 102L67.4175 4.245H84.9735L99.7365 102H85.7715L83.1115 82.05H69.2795L66.6195 102H52.6545ZM71.2745 66.888H81.1165L76.9935 34.037L76.5945 28.85H75.7965L75.3975 34.037L71.2745 66.888ZM110 102V4.245H124.364C132.965 4.245 139.305 6.639 143.383 11.427C147.462 16.1707 149.501 23.1753 149.501 32.441C149.501 37.9383 148.526 42.7042 146.575 46.7385C144.669 50.7285 142.342 53.6545 139.593 55.5165L149.368 102H135.004L126.891 60.77H124.364V102H110ZM124.364 47.47C127.024 47.47 129.13 46.8937 130.682 45.741C132.234 44.544 133.342 42.8593 134.007 40.687C134.672 38.5147 135.004 35.9433 135.004 32.973C135.004 28.318 134.229 24.7492 132.677 22.2665C131.17 19.7395 128.399 18.476 124.364 18.476V47.47ZM160.197 102V4.245H174.827C179.793 4.245 184.071 5.13166 187.662 6.905C191.297 8.634 194.09 11.3605 196.041 15.0845C198.036 18.8085 199.033 23.6187 199.033 29.515C199.033 34.2143 198.413 38.3152 197.171 41.8175C195.974 45.3198 193.625 48.1793 190.122 50.396C193.669 52.3467 196.218 55.45 197.77 59.706C199.322 63.9177 200.097 68.7943 200.097 74.336C200.097 79.789 199.211 84.5992 197.437 88.7665C195.708 92.9338 193.137 96.1923 189.723 98.542C186.354 100.847 182.187 102 177.221 102H160.197ZM174.561 87.769C178.906 87.769 181.766 86.4833 183.14 83.912C184.514 81.2963 185.201 77.5723 185.201 72.74C185.201 67.819 184.514 64.095 183.14 61.568C181.766 58.9967 178.906 57.711 174.561 57.711V87.769ZM174.561 44.544C178.596 44.544 181.367 43.4357 182.874 41.219C184.426 39.0023 185.201 35.7217 185.201 31.377C185.201 26.988 184.403 23.7517 182.807 21.668C181.256 19.54 178.507 18.476 174.561 18.476V44.544ZM229.791 103.064C225.801 103.064 222.365 102.133 219.483 100.271C216.646 98.409 214.451 95.882 212.9 92.69C211.392 89.498 210.639 85.907 210.639 81.917V24.328C210.639 20.2937 211.392 16.7027 212.9 13.555C214.451 10.363 216.646 7.83599 219.483 5.97399C222.365 4.11199 225.801 3.181 229.791 3.181C233.781 3.181 237.194 4.11199 240.032 5.97399C242.913 7.83599 245.108 10.363 246.615 13.555C248.167 16.747 248.943 20.338 248.943 24.328V81.917C248.943 85.907 248.167 89.498 246.615 92.69C245.108 95.882 242.913 98.409 240.032 100.271C237.194 102.133 233.781 103.064 229.791 103.064ZM229.791 89.099C231.564 89.099 232.805 88.3675 233.515 86.9045C234.224 85.3972 234.579 83.7347 234.579 81.917V24.328C234.579 22.5103 234.202 20.87 233.448 19.407C232.695 17.8997 231.475 17.146 229.791 17.146C228.15 17.146 226.931 17.8997 226.133 19.407C225.38 20.87 225.003 22.5103 225.003 24.328V81.917C225.003 83.7347 225.38 85.3972 226.133 86.9045C226.887 88.3675 228.106 89.099 229.791 89.099Z" fill="#E21219"/>
<path d="M405.32 102V4.245H419.684V88.7H438.703V102H405.32ZM465.692 103.064C461.702 103.064 458.266 102.133 455.384 100.271C452.547 98.409 450.352 95.882 448.801 92.69C447.293 89.498 446.54 85.907 446.54 81.917V24.328C446.54 20.2937 447.293 16.7027 448.801 13.555C450.352 10.363 452.547 7.83599 455.384 5.97399C458.266 4.11199 461.702 3.181 465.692 3.181C469.682 3.181 473.095 4.11199 475.933 5.97399C478.814 7.83599 481.009 10.363 482.516 13.555C484.068 16.747 484.844 20.338 484.844 24.328V81.917C484.844 85.907 484.068 89.498 482.516 92.69C481.009 95.882 478.814 98.409 475.933 100.271C473.095 102.133 469.682 103.064 465.692 103.064ZM465.692 89.099C467.465 89.099 468.706 88.3675 469.416 86.9045C470.125 85.3972 470.48 83.7347 470.48 81.917V24.328C470.48 22.5103 470.103 20.87 469.349 19.407C468.595 17.8997 467.376 17.146 465.692 17.146C464.051 17.146 462.832 17.8997 462.034 19.407C461.28 20.87 460.904 22.5103 460.904 24.328V81.917C460.904 83.7347 461.28 85.3972 462.034 86.9045C462.788 88.3675 464.007 89.099 465.692 89.099ZM509.103 102L494.207 4.245H508.172L515.354 61.967L515.886 71.41H516.684L517.216 61.967L524.398 4.245H538.363L523.467 102H509.103ZM548.378 102V4.245H581.229V19.008H562.742V45.342H576.042V59.706H562.742V87.237H581.229V102H548.378ZM594.549 102V4.245H608.913C617.514 4.245 623.853 6.639 627.932 11.427C632.011 16.1707 634.05 23.1753 634.05 32.441C634.05 37.9383 633.075 42.7042 631.124 46.7385C629.218 50.7285 626.89 53.6545 624.141 55.5165L633.917 102H619.553L611.44 60.77H608.913V102H594.549ZM608.913 47.47C611.573 47.47 613.679 46.8937 615.23 45.741C616.782 44.544 617.89 42.8593 618.555 40.687C619.22 38.5147 619.553 35.9433 619.553 32.973C619.553 28.318 618.777 24.7492 617.225 22.2665C615.718 19.7395 612.947 18.476 608.913 18.476V47.47Z" fill="#E21219"/>
<path d="M327 98.3304C325.487 98.3285 324.01 97.872 322.76 97.0202C304.247 84.4704 296.231 75.8654 291.809 70.4856C282.386 59.0179 277.875 47.2443 278.003 34.4946C278.151 19.8841 289.889 8 304.169 8C314.553 8 321.745 13.8409 325.933 18.7056C326.066 18.8581 326.23 18.9804 326.414 19.0643C326.598 19.1481 326.798 19.1915 327 19.1915C327.202 19.1915 327.402 19.1481 327.586 19.0643C327.771 18.9804 327.934 18.8581 328.067 18.7056C332.255 13.8362 339.447 8 349.831 8C364.111 8 375.849 19.8841 375.997 34.4969C376.125 47.249 371.609 59.0226 362.191 70.488C357.769 75.8678 349.753 84.4727 331.24 97.0225C329.99 97.8735 328.513 98.3292 327 98.3304V98.3304Z" fill="#E21219"/>
</g>
<defs>
<clipPath id="clip0_1_12">
<rect width="637" height="106" fill="white"/>
</clipPath>
</defs>
</svg>
