<svg width="21" height="38" viewBox="0 0 21 38" fill="none" xmlns="http://www.w3.org/2000/svg">
<path d="M10.0499 25.5C9.28323 25.5 8.67489 25.2333 8.22489 24.7C7.77489 24.1667 7.59989 23.5167 7.69989 22.75C7.86656 21.55 8.22489 20.4833 8.77489 19.55C9.32489 18.6167 10.1666 17.65 11.2999 16.65C12.6999 15.3833 13.7749 14.2083 14.5249 13.125C15.2749 12.0417 15.6499 10.8833 15.6499 9.65C15.6499 8.15 15.1499 6.9 14.1499 5.9C13.1499 4.9 11.7499 4.4 9.94989 4.4C8.71656 4.4 7.69156 4.65 6.87489 5.15C6.05823 5.65 5.39989 6.26667 4.89989 7C4.53323 7.53333 4.06656 7.9 3.49989 8.1C2.93323 8.3 2.38323 8.28333 1.84989 8.05C1.18323 7.78333 0.774893 7.3 0.624893 6.6C0.474893 5.9 0.583226 5.26667 0.949893 4.7C1.88323 3.33333 3.10823 2.20833 4.62489 1.325C6.14156 0.441666 7.91656 0 9.94989 0C13.2832 0 15.8499 0.925 17.6499 2.775C19.4499 4.625 20.3499 6.85 20.3499 9.45C20.3499 11.05 20.0082 12.5 19.3249 13.8C18.6416 15.1 17.5499 16.4667 16.0499 17.9C14.8832 19.0333 14.0666 19.95 13.5999 20.65C13.1332 21.35 12.8332 22.15 12.6999 23.05C12.5999 23.75 12.2999 24.3333 11.7999 24.8C11.2999 25.2667 10.7166 25.5 10.0499 25.5V25.5ZM9.94989 38C8.98323 38 8.15823 37.6583 7.47489 36.975C6.79156 36.2917 6.44989 35.4667 6.44989 34.5C6.44989 33.5333 6.79156 32.7083 7.47489 32.025C8.15823 31.3417 8.98323 31 9.94989 31C10.9166 31 11.7416 31.3417 12.4249 32.025C13.1082 32.7083 13.4499 33.5333 13.4499 34.5C13.4499 35.4667 13.1082 36.2917 12.4249 36.975C11.7416 37.6583 10.9166 38 9.94989 38Z" fill="#5A5A5A"/>
</svg>
